<svg id="Layer_1" data-name="Layer 1" xmlns="http://www.w3.org/2000/svg" width="297.86mm" height="210.71mm" viewBox="0 0 844.32 597.29"><defs><style>.cls-1{fill:none;}.cls-2,.cls-4{fill:#0090d0;}.cls-2{stroke:#0090d0;}.cls-10,.cls-11,.cls-12,.cls-13,.cls-2,.cls-3,.cls-5,.cls-7,.cls-8,.cls-9{stroke-miterlimit:10;}.cls-3{fill:#0097d6;stroke:#0097d6;}.cls-5{fill:#00aeec;stroke:#00aeec;}.cls-6,.cls-8{fill:#009ede;}.cls-7{fill:#00a8e7;stroke:#00a8e7;}.cls-8{stroke:#009ede;}.cls-9{fill:#008ccb;stroke:#008ccb;}.cls-10{fill:#0084c3;stroke:#0084c3;}.cls-11{fill:#007dbd;stroke:#007dbd;}.cls-12{fill:#0075b6;stroke:#0075b6;}.cls-13{fill:#006299;stroke:#006299;}</style></defs><path class="cls-1" d="M-.35,344.67V312.38C-3.07,322.07-2.79,334-.35,344.67Z" transform="translate(2.29 1.48)"/><path class="cls-2" d="M685,485.61C669.39,499.71,651.92,512,638.31,528c-6.31,7.45-11.74,15.67-18.73,22.48-8.82,8.58-19.77,14.23-29.34,21.83-9,7.13-17.33,14.69-27,21-1,.66-2,1.3-3,1.94h28.49q6.63-5.31,13-11c6.48-5.77,10.74-9.89,18.48-13.19s13.72-8.77,18.57-15.4c6.27-8.57,10.57-18.42,16.38-27.32,14-21.46,35.92-36.22,56.75-51.16s41.88-31.53,52.71-54.75c6.14-13.18,11.22-24.11,24.42-30.2,12.36-5.7,25.36-4.8,38.26-.45a121.89,121.89,0,0,0,14.27,3.81V317.29a109.19,109.19,0,0,0-28.48,18.49C764.34,380,733.91,441.55,685,485.61Z" transform="translate(2.29 1.48)"/><path class="cls-3" d="M789,392.31c-13.2,6.09-18.28,17-24.42,30.2-10.83,23.22-31.89,39.82-52.71,54.75s-42.74,29.7-56.75,51.16c-5.81,8.9-10.11,18.75-16.38,27.32-4.85,6.63-11,12.16-18.57,15.4s-12,7.42-18.48,13.19q-6.35,5.65-13,11h24c27.74-24.19,51.2-53.4,77.59-79.29a460.34,460.34,0,0,1,70.17-56.48c16.08-10.54,33.73-20.33,52.95-20.91,9.39-.28,18.69,1.66,27.88,3.6l.24,0V395.67a121.89,121.89,0,0,1-14.27-3.81C814.37,387.51,801.37,386.61,789,392.31Z" transform="translate(2.29 1.48)"/><path class="cls-4" d="M837,151a67,67,0,0,0,4.51,6.74V27.13A254.4,254.4,0,0,0,831,56.5C822,87.65,821.14,122.73,837,151Z" transform="translate(2.29 1.48)"/><path class="cls-3" d="M170.73,556.73c-10.13-10.79-20.67-27.3-32-38-12.5-11.75-25.08-23.42-37.61-35.13C81,464.89,60.75,446,44.75,423.6c-15.56-21.73-30.44-42.44-41.21-66.89a67.11,67.11,0,0,1-3.89-12v33.69c22.56,42,42.29,78.11,74.83,100.76,10.82,7.53,22.66,13.73,32.35,22.67C117.9,512,125.57,525.26,134,537.74a312,312,0,0,0,50.33,57.57h34.53C199,585.29,187.06,574.12,170.73,556.73Z" transform="translate(2.29 1.48)"/><path class="cls-5" d="M43.56,70.05c-2.24-9.69-9.32-17.38-15.51-25.16A176.26,176.26,0,0,1,1.75-1H-.35v158.6c12-12.6,18.92-24.83,27.51-43.18C34.08,99.67,47.23,86,43.56,70.05Z" transform="translate(2.29 1.48)"/><path class="cls-6" d="M19.22,250.72c7-14.48,7.57-29.91,10.05-45.75,2.3-14.7,4.75-29.81,12.43-42.55,9-15,24.23-24.95,37.56-36.29s25.85-26.2,26-43.7c.15-14.7-8.49-28.15-10-42.77C93.76,25.63,98.86,12,104.8-1H33.88c5.65,15.33,17.6,29.05,26.22,42.29,10,15.34,18,34.13,12.5,51.59-4.43,14.17-16.64,24.18-26.8,35A151.12,151.12,0,0,0,9,196.53C6,209.63,4.39,223.71-.35,236.08v39.73C7.22,268.25,14.33,260.83,19.22,250.72Z" transform="translate(2.29 1.48)"/><path class="cls-7" d="M102.76,521.61C81,492.47,46,475.81,22.73,447.85,13.48,436.74,6.35,424.3-.35,411.6V595.31H150.14a135.15,135.15,0,0,1-16.11-20C122.62,558,115.18,538.22,102.76,521.61Z" transform="translate(2.29 1.48)"/><path class="cls-8" d="M134,537.74c-8.44-12.48-16.11-25.73-27.18-35.95-9.69-8.94-21.53-15.14-32.35-22.67C41.94,456.47,22.21,420.38-.35,378.36V411.6c6.7,12.7,13.83,25.14,23.08,36.25,23.27,28,58.26,44.62,80,73.76C115.18,538.22,122.62,558,134,575.34a135.15,135.15,0,0,0,16.11,20h34.2A312,312,0,0,1,134,537.74Z" transform="translate(2.29 1.48)"/><path class="cls-7" d="M805.1,476.34c-22.29,3.84-39.17,12.67-60.6,19.93-24.61,8.33-50.28,34-68.32,61.89-8.9,13.74-20.22,25.85-32.5,37.15H841.54V477.21C829.57,475.2,817.48,474.22,805.1,476.34Z" transform="translate(2.29 1.48)"/><path class="cls-8" d="M841.3,442.23c-9.19-1.94-18.49-3.88-27.88-3.6-19.22.58-36.87,10.37-52.95,20.91A460.34,460.34,0,0,0,690.3,516c-26.39,25.89-49.85,55.1-77.59,79.29h31c12.28-11.3,23.6-23.41,32.5-37.15,18-27.85,43.71-53.56,68.32-61.89,21.43-7.26,38.31-16.09,60.6-19.93,12.38-2.12,24.47-1.14,36.44.87V442.28Z" transform="translate(2.29 1.48)"/><path class="cls-2" d="M166.74,20.31c-6.59.44-10.78-2.39-17.68.72-7.15,3.22-13,9.61-16.15,16.69-5.35,11.88-5,25.42-4.92,38.44s-.21,26.69-6.6,38c-7.71,13.69-22.6,21.32-35.55,30.22-23.28,16-42.73,39.27-48.59,66.9-3.57,16.82-2,34.61-7.42,50.95-6.25,19-24.7,31-30.11,49.82,0,.1,0,.2-.07.29v32.29a67.11,67.11,0,0,0,3.89,12c10.77,24.45,25.65,45.16,41.21,66.89,16,22.36,36.25,41.29,56.35,60,12.53,11.71,25.11,23.38,37.61,35.13,11.35,10.65,21.89,27.16,32,38,16.33,17.39,28.22,28.56,48.14,38.58h27.76c-3.67-1.56-7.47-3.29-11.44-5.25-40.11-19.81-65.87-60.55-98.8-90.82C101.28,467,65.82,434.3,39.27,394.69,22.45,369.62,9.17,338,20.08,309.82c5.27-13.6,15.7-24.76,20.75-38.44,6.9-18.69,3-39.85,8.78-58.92,7-23.23,27.11-39.82,46.87-53.93s44.54-25.77,56-47.17c12.78-23.87,26.07-47.73,43.8-68.19S236.7,5.7,262.92-1H196.08C187.44,8.06,177.84,19.55,166.74,20.31Z" transform="translate(2.29 1.48)"/><path class="cls-3" d="M725.27,29.27c18.89,7,31.67,10.43,50.61,3.59C793,26.68,802.3,14,811.75-1H668.44C669.63-.34,670.81.31,672,1,689.6,10.74,706.39,22.28,725.27,29.27Z" transform="translate(2.29 1.48)"/><path class="cls-3" d="M95.25,39.66c1.56,14.62,10.2,28.07,10,42.77-.19,17.5-12.72,32.35-26,43.7s-28.52,21.3-37.56,36.29C34,175.16,31.57,190.27,29.27,205c-2.48,15.84-3,31.27-10,45.75-4.89,10.11-12,17.53-19.57,25.09v36.57c0-.09,0-.19.07-.29,5.41-18.8,23.86-30.83,30.11-49.82,5.37-16.34,3.85-34.13,7.42-50.95,5.86-27.63,25.31-50.91,48.59-66.9,13-8.9,27.84-16.53,35.55-30.22,6.39-11.35,6.72-25,6.6-38s-.43-26.56,4.92-38.44c3.19-7.08,9-13.47,16.15-16.69,6.9-3.11,11.09-.28,17.68-.72,11.1-.76,20.7-12.25,29.34-21.29H104.8C98.86,12,93.76,25.63,95.25,39.66Z" transform="translate(2.29 1.48)"/><path class="cls-2" d="M629.18,2.13C653,9.36,672,28.22,689.34,45.19q31,30.32,63.94,58.57c7.05,6,15.39,12.41,24.59,11.16,8.18-1.1,14.45-8.15,17.54-15.8s3.72-16,5.26-24.12C806.53,44.18,821,23.77,836.85-1h-25.1C802.3,14,793,26.68,775.88,32.86c-18.94,6.84-31.72,3.39-50.61-3.59S689.6,10.74,672,1c-1.18-.65-2.36-1.3-3.55-1.94h-52.3A117.12,117.12,0,0,1,629.18,2.13Z" transform="translate(2.29 1.48)"/><path class="cls-9" d="M795.41,99.12c-3.09,7.65-9.36,14.7-17.54,15.8-9.2,1.25-17.54-5.11-24.59-11.16q-32.91-28.24-63.94-58.57C672,28.22,653,9.36,629.18,2.13a117.12,117.12,0,0,0-13-3.11H262.92C236.7,5.7,214,22.73,196.28,43.17s-31,44.32-43.8,68.19c-11.46,21.4-36.25,33.07-56,47.17s-39.84,30.7-46.87,53.93c-5.77,19.07-1.88,40.23-8.78,58.92-5,13.68-15.48,24.84-20.75,38.44C9.17,338,22.45,369.62,39.27,394.69c26.55,39.61,62,72.28,97.12,104.55,32.93,30.27,58.69,71,98.8,90.82,4,2,7.77,3.69,11.44,5.25h78.9c-7-2.06-13.9-4.31-20.81-6.55-24.38-7.92-47.34-13.62-68-28.75-21.85-16-41.89-34.3-61.88-52.57C135.5,471.5,98.44,435.15,64.9,393.77a89.11,89.11,0,0,1-18.65-68.45c2.39-15.93,9.09-30.84,15.71-45.52L84.86,229c5.51-12.2,11.11-24.57,19.64-34.88,16.41-19.85,41.27-29.81,59.09-48.1,9.68-9.94,17.39-21.45,26.21-32.2Q203.85,96.75,219.53,81C231.58,69,244.44,57.5,259.24,49s28.42-9.74,45.2-12.76Q372.24,24,440.67,15.87c19-2.28,38.13-4.32,57.3-4.6,36.76-.53,75.94,0,111.49,9.32,17.63,4.64,31.76,17.41,45.61,29.27,23.17,19.83,47.74,38.4,67.16,61.9,37.44,45.33,52.64,106.18,50.6,164.93A213.9,213.9,0,0,1,744,377.55c-18,31.47-42,59.13-67.8,84.6-20.34,20.08-42.06,38.88-62,59.38-15.79,16.25-31.89,32.75-51.71,43.73-15.18,8.42-32,13.3-48.09,19.88-7.82,3.2-15.49,6.81-23.25,10.17h69.05c1-.64,2-1.28,3-1.94,9.65-6.35,18-13.91,27-21,9.57-7.6,20.52-13.25,29.34-21.83,7-6.81,12.42-15,18.73-22.48C651.92,512,669.39,499.71,685,485.61c48.88-44.06,79.31-105.6,128-149.83a109.19,109.19,0,0,1,28.48-18.49V157.71A67,67,0,0,1,837,151C821.14,122.73,822,87.65,831,56.5a254.4,254.4,0,0,1,10.58-29.37V-1h-4.69C821,23.77,806.53,44.18,800.67,75,799.13,83.1,798.5,91.47,795.41,99.12Z" transform="translate(2.29 1.48)"/><path class="cls-7" d="M45.8,127.9c10.16-10.82,22.37-20.83,26.8-35,5.46-17.46-2.52-36.25-12.5-51.59C51.48,28.07,39.53,14.35,33.88-1H1.75a176.26,176.26,0,0,0,26.3,45.87c6.19,7.78,13.27,15.47,15.51,25.16,3.67,15.9-9.48,29.62-16.4,44.39C18.57,132.79,11.62,145-.35,157.62v78.46C4.39,223.71,6,209.63,9,196.53A151.12,151.12,0,0,1,45.8,127.9Z" transform="translate(2.29 1.48)"/><path class="cls-10" d="M514.43,585.14c16.07-6.58,32.91-11.46,48.09-19.88,19.82-11,35.92-27.48,51.71-43.73,19.92-20.5,41.64-39.3,62-59.38C702,436.68,726,409,744,377.55a213.9,213.9,0,0,0,28.82-100.86c2-58.75-13.16-119.6-50.6-164.93-19.42-23.5-44-42.07-67.16-61.9-13.85-11.86-28-24.63-45.61-29.27-35.55-9.36-74.73-9.85-111.49-9.32-19.17.28-38.26,2.32-57.3,4.6Q372.27,24,304.44,36.25c-16.78,3-30.41,4.27-45.2,12.76s-27.66,20-39.71,32q-15.66,15.67-29.73,32.82c-8.82,10.75-16.53,22.26-26.21,32.2-17.82,18.29-42.68,28.25-59.09,48.1C96,204.47,90.37,216.84,84.86,229L62,279.8c-6.62,14.68-13.32,29.59-15.71,45.52A89.11,89.11,0,0,0,64.9,393.77c33.54,41.38,70.6,77.73,109.91,113.67,20,18.27,40,36.59,61.88,52.57,20.69,15.13,43.65,20.83,68,28.75,6.91,2.24,13.84,4.49,20.81,6.55H491.18C498.94,592,506.61,588.34,514.43,585.14Zm-93.83-5.42c-14.18.64-28.49,1.92-42.69,1.92-11.62.53-23.45,1-34.73-1.84-19.72-5-36.37-15.27-55.25-22.87-14.58-5.87-29.34-11.85-41.93-21.25-14.76-11-25.82-26.22-39.2-38.89-14.84-14.05-32.39-24.85-48.75-37.1-26-19.47-52.64-42-69-70.51-9.7-16.9-15.69-36.26-14.87-55.73,1.09-25.84,13.8-49.65,27.35-71.69a750.53,750.53,0,0,1,69.54-95.39Q185.72,149.24,201.4,133c9.63-10,20.09-23.48,31.93-30.76,4.59-2.82,10-4.27,14.71-7.07,6.77-4,13.59-7.92,20.5-11.67a351.58,351.58,0,0,1,42.69-19.94C348.77,49.3,388,48.69,427.35,45q24.94-2.37,49.81-5.52,12.42-1.57,24.83-3.35c7.33-1,15.86-3.7,23.24-3.09,29.28,2.43,59.56.77,87.38,12.24,14.08,5.8,25.86,16,37.17,26.14,25,22.48,49.3,46.27,67.43,74.58a199.65,199.65,0,0,1,10.23,17.93,167,167,0,0,1,14.78,42.17c2.85,14.34,2,28.8,4.15,43.09a194.82,194.82,0,0,1-8.54,91.49c-17.22,49.84-51,92.15-89.18,127.46l-15.82,14.62c-10.65,9.84-21.49,19.82-34.48,26.26-6,3-12.37,5-18.73,7.11-5.21,1.74-9.55,5.32-14,8.54-10.39,7.43-20.15,15.72-30.91,22.64-21.44,13.78-47.52,23.62-72.11,30C449.73,580.66,433.9,579.12,420.6,579.72Z" transform="translate(2.29 1.48)"/><path class="cls-11" d="M534.66,547.26c10.76-6.92,20.52-15.21,30.91-22.64,4.5-3.22,8.84-6.8,14-8.54C586,514,592.32,512,598.35,509c13-6.44,23.83-16.42,34.48-26.26l15.82-14.62c38.21-35.31,72-77.62,89.18-127.46a194.82,194.82,0,0,0,8.54-91.49c-2.1-14.29-1.3-28.75-4.15-43.09a167,167,0,0,0-14.78-42.17A199.65,199.65,0,0,0,717.21,146c-18.13-28.31-42.43-52.1-67.43-74.58C638.47,61.18,626.69,51,612.61,45.23c-27.82-11.47-58.1-9.81-87.38-12.24-7.38-.61-15.91,2-23.24,3.09q-12.4,1.77-24.83,3.35Q452.3,42.58,427.35,45C388,48.69,348.77,49.3,311.23,63.58a351.58,351.58,0,0,0-42.69,19.94c-6.91,3.75-13.73,7.67-20.5,11.67-4.74,2.8-10.12,4.25-14.71,7.07C221.49,109.54,211,123.07,201.4,133q-15.66,16.22-30.35,33.35a750.53,750.53,0,0,0-69.54,95.39c-13.55,22-26.26,45.85-27.35,71.69-.82,19.47,5.17,38.83,14.87,55.73,16.38,28.51,43,51,69,70.51,16.36,12.25,33.91,23.05,48.75,37.1,13.38,12.67,24.44,27.87,39.2,38.89,12.59,9.4,27.35,15.38,41.93,21.25,18.88,7.6,35.53,17.84,55.25,22.87,11.28,2.87,23.11,2.37,34.73,1.84,14.2,0,28.51-1.28,42.69-1.92,13.3-.6,29.13.94,41.95-2.41C487.14,570.88,513.22,561,534.66,547.26Zm-124,10.48c-29.36,3.83-58.9-3.56-87.58-10.9-10.82-2.77-21.74-5.57-31.7-10.61-6.93-3.5-13.27-8-19.59-12.52-8-5.71-16.21-11.23-24.07-17.15-6.68-5-12.35-11.81-18.55-17.55a368,368,0,0,0-42-33.56c-23.18-15.91-48.73-29.65-66.1-51.76A102.44,102.44,0,0,1,102,319.26c6.19-27.64,23.57-51.23,40.52-73.93,22.27-29.82,44.63-59.74,70.81-86.19,19.67-19.87,41.6-37.78,66.15-51.31,12.18-6.71,25.06-11.52,37.51-17.54,12.94-6.27,26.48-11.48,40.68-14,17.47-3.07,35.36-2,53.1-2.18,41.56-.49,84.54-8.73,125.78-13.89,28.42-3.56,57,7,81.32,22.07a225.54,225.54,0,0,1,80,85.69q2.57,4.86,4.89,9.84a225.9,225.9,0,0,1,21,88.5c.42,14.19,2.29,27.27-.15,41.53A166.85,166.85,0,0,1,709.54,351c-10.33,21.8-24.17,41.72-37.95,61.52-7.43,10.68-14.9,21.4-23.8,30.88C635.07,457,619.61,467.7,603.06,476c-7.59,3.82-14,8.6-21.43,12.5-8.83,4.64-17.84,9-26.36,14.17-13.45,8.21-25.51,18.52-38.93,26.79C485.32,548.6,446.77,553,410.65,557.74Z" transform="translate(2.29 1.48)"/><path class="cls-12" d="M555.27,502.71c8.52-5.21,17.53-9.53,26.36-14.17,7.43-3.9,13.84-8.68,21.43-12.5,16.55-8.34,32-19.09,44.73-32.64,8.9-9.48,16.37-20.2,23.8-30.88,13.78-19.8,27.62-39.72,37.95-61.52a166.85,166.85,0,0,0,14.11-43.13c2.44-14.26.57-27.34.15-41.53a225.9,225.9,0,0,0-21-88.5q-2.32-5-4.89-9.84a225.54,225.54,0,0,0-80-85.69c-24.34-15.1-52.9-25.63-81.32-22.07-41.24,5.16-84.22,13.4-125.78,13.89-17.74.21-35.63-.89-53.1,2.18-14.2,2.5-27.74,7.71-40.68,14-12.45,6-25.33,10.83-37.51,17.54-24.55,13.53-46.48,31.44-66.15,51.31-26.18,26.45-48.54,56.37-70.81,86.19-17,22.7-34.33,46.29-40.52,73.93a102.44,102.44,0,0,0,19.11,84.43c17.37,22.11,42.92,35.85,66.1,51.76a368,368,0,0,1,42,33.56c6.2,5.74,11.87,12.51,18.55,17.55,7.86,5.92,16.06,11.44,24.07,17.15,6.32,4.5,12.66,9,19.59,12.52,10,5,20.88,7.84,31.7,10.61,28.68,7.34,58.22,14.73,87.58,10.9,36.12-4.72,74.67-9.14,105.69-28.24C529.76,521.23,541.82,510.92,555.27,502.71ZM389.9,534.65c-14.21.53-28.62.19-42.35-3.52-25.65-6.92-50-24.39-69-42.38-21.25-20.16-43.16-39.78-67.26-56.51C192.24,419,171.5,407.3,156.6,389.47c-19.9-23.81-26.9-58.75-14.55-87.21,14.62-33.68,47.57-52.58,66.16-84.23,17.71-30.15,38.79-60.18,69.66-76.59,14-7.43,29.42-11.73,44-17.88,13.59-5.71,26.59-13.07,40.87-16.71s29.27-3.38,44-3.09c17.55.33,31.42,4.12,48.66.83,23.64-4.5,47.39-9,71.43-9.85s48.6,2.2,70.49,12.19c30.37,13.88,53.69,40.46,68.59,70.34a214.33,214.33,0,0,1,8.87,20.41,293.52,293.52,0,0,1,12.54,44.69c2.91,14.31,7.85,28.6,9,43.18,2.34,29.42-9.1,57.78-24.22,82.42-12.11,19.73-25.76,38.76-42.91,54.31-25.14,22.78-56.35,37-84.6,55.26C521.3,492.65,499.81,509.13,473.4,519,446.74,528.92,418.26,533.59,389.9,534.65Z" transform="translate(2.29 1.48)"/><path class="cls-13" d="M629.25,422.28c17.15-15.55,30.8-34.58,42.91-54.31,15.12-24.64,26.56-53,24.22-82.42-1.16-14.58-6.1-28.87-9-43.18a293.52,293.52,0,0,0-12.54-44.69A214.33,214.33,0,0,0,666,177.27c-14.9-29.88-38.22-56.46-68.59-70.34-21.89-10-46.44-13-70.49-12.19s-47.79,5.35-71.43,9.85c-17.24,3.29-31.11-.5-48.66-.83-14.75-.29-29.72-.54-44,3.09s-27.28,11-40.87,16.71c-14.61,6.15-30,10.45-44,17.88-30.87,16.41-52,46.44-69.66,76.59-18.59,31.65-51.54,50.55-66.16,84.23-12.35,28.46-5.35,63.4,14.55,87.21,14.9,17.83,35.64,29.52,54.73,42.77,24.1,16.73,46,36.35,67.26,56.51,19,18,43.31,35.46,69,42.38,13.73,3.71,28.14,4,42.35,3.52,28.36-1.06,56.84-5.73,83.5-15.67,26.41-9.85,47.9-26.33,71.25-41.44C572.9,459.25,604.11,445.06,629.25,422.28Z" transform="translate(2.29 1.48)"/></svg>